<svg xmlns="http://www.w3.org/2000/svg" xmlns:xlink="http://www.w3.org/1999/xlink" width="200" height="200" class="icon" p-id="8885" t="1677247869411" version="1.1" viewBox="0 0 1024 1024"><path fill="#040000" d="M595.072 290.288L537.472 160H108.8A28.528 28.528 0 0 0 80 188.24V880h864V290.288H595.072zM137.6 244.688a28.528 28.528 0 0 1 28.8-28.224h342.272l28.8 73.824H137.6v-45.6z m748.8 578.848H137.6v-476.8h748.8v476.8z" p-id="8886"/><path fill="#040000" d="M595.072 290.288L537.472 160H108.8A28.528 28.528 0 0 0 80 188.24V880h864V290.288H595.072zM137.6 244.688a28.528 28.528 0 0 1 28.8-28.224h342.272l28.8 73.824H137.6v-45.6z m748.8 578.848H137.6v-476.8h748.8v476.8z" p-id="8887"/></svg>